# xmcd
# 
# Track frame offsets:
#     150
#     12304
#     29320
#     43136
#     55722
#     70448
#     90742
#     108477
#     130713
#     149080
#     167479
#     184497
#     207552
#     223578
#     244634
# 
# Disc length: 3532
# 
# Revision: 5
# Processed by: cddbd v1.5.2PL0 Copyright (c) Steve Scherf et al.
# Submitted via: fre:ac v1.0.31
# 
DISCID=e20dca0f
DTITLE=Chris Rea - Blue Guitars - [11 60's and 70's]
DYEAR=2005
DGENRE=Blues
TTITLE0=My Baby Told Me (Blues)
TTITLE1=Got To Be Moving
TTITLE2=My Baby Told Me (Gospel)
TTITLE3=Heartbreaker
TTITLE4=Yes I Do (Instrumental)
TTITLE5=Wasted Love
TTITLE6=Cool Cool Blue
TTITLE7=Clarkson Blues
TTITLE8=Who Killed Love
TTITLE9=Never Tie Me Down
TTITLE10=Mindless
TTITLE11=Ain't That Just The Prettiest Thing
TTITLE12=Nobody But You
TTITLE13=Waiting For Love
TTITLE14=Blue Morning In The Rain
EXTD=CD 2005 - CD 11/11\nJazzee Blue/EarBooks - edel records 9 783937 406329
EXTT0=
EXTT1=
EXTT2=
EXTT3=
EXTT4=
EXTT5=
EXTT6=
EXTT7=
EXTT8=
EXTT9=
EXTT10=
EXTT11=
EXTT12=
EXTT13=
EXTT14=
PLAYORDER=
